<svg width="204" height="25" viewBox="0 0 204 25" fill="none" xmlns="http://www.w3.org/2000/svg">
<path fill-rule="evenodd" clip-rule="evenodd" d="M43.6512 23.3038C43.6512 23.8107 43.3959 24.0642 42.8852 24.0642H33.8883C33.671 24.0642 33.4944 24.0008 33.3586 23.8741C33.2228 23.7474 33.1549 23.5683 33.1549 23.3369C33.1549 23.1386 33.201 22.9788 33.2934 22.8576C33.3858 22.7363 33.5297 22.6372 33.7253 22.56L34.4262 22.3452C34.6 22.2901 34.7358 22.1854 34.8336 22.0311C34.9314 21.8768 34.9803 21.6565 34.9803 21.37V11.8162C34.9803 11.662 34.9423 11.5325 34.8662 11.4278C34.7902 11.3231 34.6489 11.2267 34.4425 11.1386L33.4971 10.8245C33.2472 10.7033 33.0679 10.5738 32.9593 10.4361C32.8506 10.2983 32.7963 10.1303 32.7963 9.93194C32.7963 9.73359 32.8642 9.57106 33 9.44434L33.0534 9.39979C33.1835 9.30276 33.3532 9.25425 33.5623 9.25425H34.9925L34.9813 9.15766C34.9508 8.96448 34.8744 8.77905 34.7521 8.60136C34.5891 8.36445 34.4044 8.09723 34.198 7.79971C33.9915 7.50219 33.8068 7.14682 33.6438 6.73359C33.4808 6.32037 33.3993 5.81073 33.3993 5.20467C33.3993 3.76114 33.8883 2.60687 34.8662 1.74186C35.8441 0.876843 37.235 0.444336 39.0387 0.444336C40.2013 0.444336 41.1657 0.631664 41.9317 1.00632C42.6977 1.38098 43.2709 1.8796 43.6512 2.50219C44.0315 3.12478 44.2217 3.80522 44.2217 4.54351C44.2217 5.41403 43.9962 6.06693 43.5453 6.50219C43.0943 6.93745 42.5157 7.15508 41.8095 7.15508C41.0271 7.15508 40.3969 6.90164 39.9188 6.39475C39.4407 5.88786 39.2017 5.21569 39.2017 4.37822V2.90715C39.2017 2.52147 39.1256 2.23772 38.9735 2.05591C38.8214 1.87409 38.5877 1.78318 38.2726 1.78318C37.8706 1.78318 37.5664 1.92092 37.3599 2.1964C37.1535 2.47188 37.0502 2.86858 37.0502 3.38648C37.0502 3.91541 37.1725 4.41128 37.417 4.87409C37.6614 5.3369 37.963 5.7694 38.3215 6.17161C38.6801 6.57381 39.0387 6.95949 39.3973 7.32863C39.7558 7.69778 40.0573 8.06142 40.3018 8.41954L40.3715 8.5269C40.5035 8.74144 40.5915 8.955 40.6355 9.16756L40.6504 9.25425H43.0645C43.3144 9.25425 43.5072 9.30659 43.6431 9.41128C43.7789 9.51596 43.8468 9.6785 43.8468 9.89888C43.8468 10.2295 43.7055 10.4994 43.423 10.7088C43.1405 10.9182 42.695 11.0228 42.0865 11.0228H40.9293V21.3204C40.9293 21.6289 40.9755 21.8658 41.0679 22.0311C41.1602 22.1964 41.3096 22.2956 41.5161 22.3286L42.9178 22.5435C43.1677 22.5766 43.3524 22.6565 43.4719 22.7832C43.5914 22.9099 43.6512 23.0835 43.6512 23.3038ZM11.5591 23.684C10.5812 24.1578 9.44029 24.3947 8.13639 24.3947C6.75644 24.3947 5.52045 24.1027 4.42844 23.5187C3.33643 22.9347 2.47532 22.089 1.8451 20.9815C1.21489 19.8741 0.89978 18.527 0.89978 16.9402C0.89978 15.4085 1.22847 14.0394 1.88585 12.8328C2.54323 11.6262 3.45867 10.673 4.63218 9.97326C5.80568 9.27354 7.17477 8.92367 8.73944 8.92367C10.0759 8.92367 11.2033 9.12202 12.1214 9.51872C13.0396 9.91541 13.7404 10.4526 14.2239 11.1303C14.7075 11.808 14.9492 12.5655 14.9492 13.403C14.9492 14.2846 14.6966 14.976 14.1913 15.4774C13.6861 15.9788 12.9988 16.2295 12.1296 16.2295C11.2386 16.2295 10.5622 15.9733 10.1004 15.4609C9.63859 14.9485 9.40769 14.246 9.40769 13.3534V12.2956C9.40769 11.7556 9.3099 11.3479 9.11431 11.0724C8.91873 10.797 8.64165 10.6592 8.28308 10.6592C7.92451 10.6592 7.60125 10.8052 7.31331 11.0972C7.02537 11.3892 6.80262 11.8273 6.64506 12.4113C6.48751 12.9953 6.40873 13.7171 6.40873 14.5766C6.40873 15.8107 6.59073 16.8465 6.95474 17.684C7.31874 18.5215 7.81585 19.1496 8.44607 19.5683C9.07628 19.987 9.79342 20.1964 10.5975 20.1964C11.4016 20.1964 12.0752 20.0779 12.6185 19.841C13.1618 19.6041 13.5801 19.2047 13.8735 18.6427C14.0365 18.4884 14.1642 18.3892 14.2565 18.3452C14.3489 18.3011 14.4385 18.279 14.5255 18.279C14.6341 18.2901 14.7238 18.3424 14.7944 18.4361C14.865 18.5297 14.8949 18.6757 14.884 18.8741C14.7971 19.954 14.4657 20.9071 13.8898 21.7336C13.3139 22.56 12.537 23.2102 11.5591 23.684ZM28.1267 23.3534C26.9043 24.0256 25.4836 24.3617 23.8646 24.3617C22.2891 24.3617 20.9064 24.0339 19.7166 23.3782C18.5268 22.7226 17.6005 21.8162 16.9377 20.6592C16.2749 19.5022 15.9435 18.1633 15.9435 16.6427C15.9435 15.1881 16.2912 13.8796 16.9866 12.7171C17.682 11.5545 18.6436 10.6317 19.8714 9.94847C21.0993 9.26527 22.5118 8.92367 24.1091 8.92367C25.6955 8.92367 27.0809 9.25425 28.2653 9.91541C29.4496 10.5766 30.3732 11.4912 31.036 12.6592C31.6988 13.8273 32.0303 15.1771 32.0303 16.7088C32.0303 18.1633 31.6853 19.4664 30.9953 20.6179C30.3053 21.7694 29.3491 22.6813 28.1267 23.3534ZM25.1033 22.6427C24.7665 22.7088 24.4378 22.56 24.1172 22.1964C23.7967 21.8328 23.4925 21.2212 23.2045 20.3617C22.9166 19.5022 22.6422 18.3727 22.3814 16.9733C22.1315 15.5738 21.9903 14.4223 21.9577 13.5187C21.9251 12.6151 21.9903 11.9319 22.1533 11.4691C22.3162 11.0063 22.5662 10.7363 22.903 10.6592C23.2398 10.5931 23.5685 10.7419 23.8891 11.1055C24.2096 11.4691 24.5166 12.0807 24.8099 12.9402C25.1033 13.7997 25.3804 14.9292 25.6412 16.3286C25.9019 17.7281 26.0459 18.8824 26.0731 19.7914C26.1003 20.7005 26.0296 21.3865 25.8612 21.8493C25.6928 22.3121 25.4402 22.5766 25.1033 22.6427ZM54.2616 24.0642C54.7723 24.0642 55.0277 23.8107 55.0277 23.3038C55.0277 23.0835 54.9679 22.9099 54.8484 22.7832C54.7289 22.6565 54.5442 22.5766 54.2942 22.5435L52.8926 22.3286C52.6861 22.2956 52.5367 22.1964 52.4443 22.0311C52.352 21.8658 52.3058 21.6289 52.3058 21.3204V11.0228H53.463C54.0715 11.0228 54.517 10.9182 54.7995 10.7088C55.082 10.4994 55.2233 10.2295 55.2233 9.89888C55.2233 9.6785 55.1554 9.51596 55.0195 9.41128C54.8837 9.30659 54.6908 9.25425 54.4409 9.25425H52.0269L52.012 9.16756C51.968 8.955 51.88 8.74144 51.748 8.5269L51.6783 8.41954C51.4338 8.06142 51.1323 7.69778 50.7737 7.32863C50.4152 6.95949 50.0566 6.57381 49.698 6.17161C49.3394 5.7694 49.0379 5.3369 48.7934 4.87409C48.549 4.41128 48.4267 3.91541 48.4267 3.38648C48.4267 2.86858 48.5299 2.47188 48.7364 2.1964C48.9428 1.92092 49.2471 1.78318 49.6491 1.78318C49.9642 1.78318 50.1978 1.87409 50.35 2.05591C50.5021 2.23772 50.5781 2.52147 50.5781 2.90715V4.37822C50.5781 5.21569 50.8172 5.88786 51.2953 6.39475C51.7734 6.90164 52.4036 7.15508 53.1859 7.15508C53.8922 7.15508 54.4708 6.93745 54.9217 6.50219C55.3727 6.06693 55.5981 5.41403 55.5981 4.54351C55.5981 3.80522 55.408 3.12478 55.0277 2.50219C54.6474 1.8796 54.0742 1.38098 53.3082 1.00632C52.5421 0.631664 51.5778 0.444336 50.4152 0.444336C48.6114 0.444336 47.2206 0.876843 46.2427 1.74186C45.2648 2.60687 44.7758 3.76114 44.7758 5.20467C44.7758 5.81073 44.8573 6.32037 45.0203 6.73359C45.1833 7.14682 45.368 7.50219 45.5745 7.79971C45.7809 8.09723 45.9656 8.36445 46.1286 8.60136C46.2508 8.77905 46.3272 8.96448 46.3578 9.15766L46.369 9.25425H44.9388C44.7296 9.25425 44.56 9.30276 44.4299 9.39979L44.3765 9.44434C44.2407 9.57106 44.1728 9.73359 44.1728 9.93194C44.1728 10.1303 44.2271 10.2983 44.3358 10.4361C44.4444 10.5738 44.6237 10.7033 44.8736 10.8245L45.8189 11.1386C46.0254 11.2267 46.1666 11.3231 46.2427 11.4278C46.3188 11.5325 46.3568 11.662 46.3568 11.8162V21.37C46.3568 21.6565 46.3079 21.8768 46.2101 22.0311C46.1123 22.1854 45.9765 22.2901 45.8026 22.3452L45.1018 22.56C44.9062 22.6372 44.7622 22.7363 44.6699 22.8576C44.5775 22.9788 44.5313 23.1386 44.5313 23.3369C44.5313 23.5683 44.5992 23.7474 44.7351 23.8741C44.8709 24.0008 45.0475 24.0642 45.2648 24.0642H54.2616ZM67.0235 23.5848C65.9695 24.1248 64.7526 24.3947 63.3726 24.3947C61.8514 24.3947 60.5149 24.0779 59.3631 23.4443C58.2114 22.8107 57.3122 21.9237 56.6657 20.7832C56.0192 19.6427 55.6959 18.3231 55.6959 16.8245C55.6959 15.2487 56.0083 13.8686 56.6331 12.684C57.2579 11.4994 58.1625 10.5766 59.3468 9.91541C60.5312 9.25425 61.9546 8.92367 63.6171 8.92367C65.0296 8.92367 66.2466 9.20191 67.268 9.75839C68.2894 10.3149 69.0744 11.0697 69.6231 12.0228C70.1719 12.976 70.4462 14.0366 70.4462 15.2047C70.4462 15.7116 70.3104 16.111 70.0388 16.403L69.974 16.4678C69.7062 16.7166 69.3367 16.841 68.8653 16.841H61.4145L61.4305 16.9173C61.6282 17.8247 61.9659 18.5514 62.4436 19.0972C63.2585 20.0284 64.3451 20.4939 65.7033 20.4939C66.5726 20.4939 67.3413 20.2956 68.0096 19.8989C68.6778 19.5022 69.126 18.9512 69.3542 18.246C69.4846 18.1027 69.6014 18.0063 69.7046 17.9567C69.8079 17.9071 69.8975 17.8824 69.9736 17.8824C70.0822 17.8824 70.1746 17.9264 70.2506 18.0146C70.3267 18.1027 70.3647 18.2515 70.3647 18.4609C70.3647 19.5408 70.0714 20.5297 69.4846 21.4278C68.8979 22.3259 68.0775 23.0449 67.0235 23.5848ZM61.2444 15.516C61.2289 15.2625 61.2212 14.9989 61.2212 14.7253C61.2212 13.6895 61.2972 12.8741 61.4494 12.279C61.6015 11.684 61.7971 11.2625 62.0361 11.0146C62.2752 10.7667 62.5414 10.6427 62.8347 10.6427C63.215 10.6427 63.5709 10.9678 63.9023 11.6179C64.2337 12.268 64.3994 13.3479 64.3994 14.8576C64.3994 15.3204 64.193 15.5518 63.7801 15.5518H61.2465L61.2444 15.516ZM82.605 23.5848C81.5511 24.1248 80.3341 24.3947 78.9541 24.3947C77.4329 24.3947 76.0964 24.0779 74.9447 23.4443C73.7929 22.8107 72.8937 21.9237 72.2472 20.7832C71.6007 19.6427 71.2775 18.3231 71.2775 16.8245C71.2775 15.2487 71.5899 13.8686 72.2146 12.684C72.8394 11.4994 73.744 10.5766 74.9284 9.91541C76.1127 9.25425 77.5361 8.92367 79.1986 8.92367C80.6112 8.92367 81.8281 9.20191 82.8495 9.75839C83.8709 10.3149 84.656 11.0697 85.2047 12.0228C85.7534 12.976 86.0278 14.0366 86.0278 15.2047C86.0278 15.7116 85.8919 16.111 85.6203 16.403L85.5555 16.4678C85.2878 16.7166 84.9182 16.841 84.4468 16.841H76.996L77.012 16.9173C77.2097 17.8247 77.5474 18.5514 78.0251 19.0972C78.84 20.0284 79.9266 20.4939 81.2848 20.4939C82.1541 20.4939 82.9229 20.2956 83.5911 19.8989C84.2594 19.5022 84.7076 18.9512 84.9357 18.246C85.0661 18.1027 85.1829 18.0063 85.2862 17.9567C85.3894 17.9071 85.479 17.8824 85.5551 17.8824C85.6638 17.8824 85.7561 17.9264 85.8322 18.0146C85.9082 18.1027 85.9463 18.2515 85.9463 18.4609C85.9463 19.5408 85.6529 20.5297 85.0661 21.4278C84.4794 22.3259 83.659 23.0449 82.605 23.5848ZM76.826 15.516C76.8105 15.2625 76.8027 14.9989 76.8027 14.7253C76.8027 13.6895 76.8788 12.8741 77.0309 12.279C77.183 11.684 77.3786 11.2625 77.6176 11.0146C77.8567 10.7667 78.1229 10.6427 78.4163 10.6427C78.7966 10.6427 79.1524 10.9678 79.4838 11.6179C79.8152 12.268 79.981 13.3479 79.981 14.8576C79.981 15.3204 79.7745 15.5518 79.3616 15.5518H76.8281L76.826 15.516ZM96.4997 23.8576C96.3638 23.9953 96.1655 24.0642 95.9048 24.0642H87.7554C87.5164 24.0642 87.3289 23.9981 87.1931 23.8658C87.0573 23.7336 86.9894 23.5518 86.9894 23.3204C86.9894 23.1441 87.0301 22.9981 87.1116 22.8824C87.1931 22.7666 87.3045 22.6592 87.4457 22.56L87.8206 22.4113C87.9619 22.3452 88.0597 22.2405 88.114 22.0972C88.1683 21.954 88.1955 21.7171 88.1955 21.3865V12.9898C88.1955 12.7253 88.1656 12.5352 88.1058 12.4195C88.0461 12.3038 87.9456 12.2129 87.8043 12.1468L87.3805 12.0972C87.2284 12.0091 87.1171 11.9154 87.0464 11.8162C86.9758 11.7171 86.9405 11.5903 86.9405 11.4361C86.9405 11.2598 86.9948 11.1027 87.1035 10.965C87.2121 10.8273 87.3968 10.7088 87.6576 10.6096L92.2864 9.27078C92.5581 9.16059 92.7863 9.08345 92.971 9.03938C93.1557 8.9953 93.3133 8.97326 93.4437 8.97326C93.6284 8.97326 93.7669 9.03938 93.8593 9.17161L93.8889 9.21956C93.9651 9.35778 94.0177 9.57871 94.0467 9.88235L94.1708 12.4508L94.1991 12.356C94.2541 12.177 94.3147 12.0054 94.3808 11.841C94.7774 10.8548 95.3017 10.122 95.9537 9.64268C96.6056 9.16334 97.3173 8.92367 98.0888 8.92367C99.0232 8.92367 99.7404 9.23772 100.24 9.86582C100.74 10.4939 100.99 11.4471 100.99 12.7253C100.99 13.9925 100.729 14.9237 100.208 15.5187C99.6861 16.1138 99.0124 16.4113 98.1866 16.4113C97.3825 16.4113 96.7876 16.2074 96.4019 15.7997C96.0161 15.392 95.8124 14.8135 95.7907 14.0642L95.7744 13.403C95.7635 13.1496 95.7146 12.9512 95.6277 12.808C95.5407 12.6647 95.3995 12.5931 95.2039 12.5931C95.0083 12.5931 94.8372 12.695 94.6905 12.8989C94.5438 13.1027 94.4324 13.414 94.3564 13.8328C94.2803 14.2515 94.2423 14.7859 94.2423 15.4361V21.2543C94.2423 21.5628 94.2912 21.808 94.389 21.9898C94.4868 22.1716 94.6389 22.2846 94.8453 22.3286L96.0677 22.5766C96.2959 22.6096 96.4589 22.695 96.5567 22.8328C96.6545 22.9705 96.7034 23.133 96.7034 23.3204C96.7034 23.5408 96.6355 23.7198 96.4997 23.8576ZM109.53 24.3617C111.149 24.3617 112.57 24.0256 113.793 23.3534C115.015 22.6813 115.971 21.7694 116.661 20.6179C117.351 19.4664 117.696 18.1633 117.696 16.7088C117.696 15.1771 117.365 13.8273 116.702 12.6592C116.039 11.4912 115.115 10.5766 113.931 9.91541C112.747 9.25425 111.361 8.92367 109.775 8.92367C108.178 8.92367 106.765 9.26527 105.537 9.94847C104.309 10.6317 103.348 11.5545 102.652 12.7171C101.957 13.8796 101.609 15.1881 101.609 16.6427C101.609 18.1633 101.941 19.5022 102.604 20.6592C103.266 21.8162 104.193 22.7226 105.382 23.3782C106.572 24.0339 107.955 24.3617 109.53 24.3617ZM109.783 22.1964C110.104 22.56 110.432 22.7088 110.769 22.6427C111.106 22.5766 111.359 22.3121 111.527 21.8493C111.695 21.3865 111.766 20.7005 111.739 19.7914C111.712 18.8824 111.568 17.7281 111.307 16.3286C111.046 14.9292 110.769 13.7997 110.476 12.9402C110.182 12.0807 109.875 11.4691 109.555 11.1055C109.234 10.7419 108.906 10.5931 108.569 10.6592C108.232 10.7363 107.982 11.0063 107.819 11.4691C107.656 11.9319 107.591 12.6151 107.624 13.5187C107.656 14.4223 107.797 15.5738 108.047 16.9733C108.308 18.3727 108.582 19.5022 108.87 20.3617C109.158 21.2212 109.463 21.8328 109.783 22.1964ZM130.621 24.3947C131.534 24.3947 132.283 24.2267 132.87 23.8906C133.457 23.5545 133.894 23.1551 134.182 22.6923C134.47 22.2295 134.614 21.8052 134.614 21.4195C134.614 21.2543 134.579 21.1165 134.508 21.0063C134.438 20.8961 134.342 20.841 134.223 20.841C134.169 20.841 134.12 20.852 134.076 20.8741C134.033 20.8961 133.995 20.9292 133.962 20.9733C133.908 21.1716 133.824 21.3093 133.71 21.3865C133.595 21.4636 133.473 21.5022 133.343 21.5022C133.158 21.5022 133.02 21.4388 132.927 21.3121C132.835 21.1854 132.789 21.0173 132.789 20.808V13.5022C132.789 12.0476 132.297 10.9209 131.314 10.122C130.33 9.32312 128.79 8.92367 126.693 8.92367C125.063 8.92367 123.702 9.12753 122.61 9.53524C121.518 9.94296 120.698 10.4636 120.149 11.0972C119.6 11.7308 119.326 12.3782 119.326 13.0394C119.326 13.7446 119.53 14.2818 119.937 14.6509C120.345 15.0201 120.934 15.2047 121.706 15.2047C122.651 15.2047 123.395 14.9485 123.938 14.4361C124.482 13.9237 124.753 13.2598 124.753 12.4443V11.1881C124.753 10.8796 124.848 10.6399 125.039 10.4691C125.229 10.2983 125.465 10.2129 125.748 10.2129C126.052 10.2129 126.294 10.3259 126.473 10.5518C126.652 10.7777 126.742 11.0835 126.742 11.4691L126.741 16.2873L126.655 16.2685C126.393 16.2178 126.089 16.1889 125.744 16.1817L125.568 16.1799C123.232 16.1799 121.491 16.5766 120.345 17.37C119.198 18.1633 118.625 19.2708 118.625 20.6923C118.625 21.7722 119.019 22.6592 119.807 23.3534C120.595 24.0476 121.64 24.3947 122.944 24.3947C123.922 24.3947 124.835 24.1936 125.682 23.7914C126.318 23.4898 126.835 23.0936 127.232 22.6029L127.254 22.5743L127.278 22.6482C127.404 23.0055 127.633 23.3256 127.967 23.6085L128.07 23.6923C128.673 24.1606 129.523 24.3947 130.621 24.3947ZM125.006 21.279C125.272 21.6372 125.623 21.8162 126.057 21.8162L126.151 21.813C126.336 21.8001 126.515 21.7484 126.688 21.6581L126.741 21.628V17.3865L126.66 17.3617C126.476 17.3121 126.258 17.2873 126.008 17.2873C125.585 17.2873 125.245 17.4857 124.99 17.8824C124.734 18.279 124.607 18.8631 124.607 19.6344C124.607 20.3727 124.74 20.9209 125.006 21.279ZM142.111 24.4443C144.046 24.4443 145.529 23.9981 146.561 23.1055C147.593 22.2129 148.109 20.9953 148.109 19.4526C148.109 18.516 147.936 17.695 147.588 16.9898C147.24 16.2846 146.632 15.6592 145.762 15.1138C144.893 14.5683 143.671 14.0532 142.095 13.5683C141.508 13.381 141.055 13.1909 140.734 12.9981C140.414 12.8052 140.194 12.5986 140.074 12.3782C139.955 12.1578 139.895 11.9209 139.895 11.6675C139.895 11.2928 140.031 10.9898 140.302 10.7584C140.574 10.527 140.976 10.4113 141.508 10.4113C142.247 10.4113 142.945 10.6592 143.603 11.1551C144.26 11.6509 144.986 12.4994 145.779 13.7005C145.985 13.954 146.192 14.1386 146.398 14.2543C146.604 14.37 146.8 14.4058 146.985 14.3617C147.213 14.2956 147.354 14.1441 147.409 13.9071C147.463 13.6702 147.452 13.3314 147.376 12.8906L146.952 9.84929C146.909 9.52974 146.827 9.30384 146.708 9.17161C146.588 9.03938 146.431 8.97326 146.235 8.97326C146.061 8.97326 145.844 9.03387 145.583 9.15508C145.322 9.27629 145.064 9.40026 144.809 9.52698C144.554 9.6537 144.361 9.71706 144.23 9.71706C144.111 9.71706 143.934 9.65095 143.701 9.51872C143.467 9.38648 143.138 9.25425 142.715 9.12202C142.291 8.98979 141.742 8.92367 141.068 8.92367C139.949 8.92367 138.941 9.12753 138.045 9.53524C137.149 9.94296 136.442 10.5242 135.926 11.279C135.41 12.0339 135.152 12.9347 135.152 13.9815C135.152 14.9071 135.345 15.7171 135.731 16.4113C136.116 17.1055 136.706 17.7005 137.499 18.1964C138.292 18.6923 139.292 19.0945 140.498 19.403C141.28 19.6124 141.881 19.8245 142.299 20.0394C142.717 20.2543 143.005 20.4884 143.163 20.7419C143.32 20.9953 143.399 21.2763 143.399 21.5848C143.399 21.9925 143.263 22.3286 142.992 22.5931C142.72 22.8576 142.307 22.9898 141.753 22.9898C141.231 22.9898 140.734 22.8768 140.262 22.6509C139.789 22.4251 139.303 22.0366 138.803 21.4857C138.303 20.9347 137.743 20.1799 137.124 19.2212C136.939 18.9678 136.73 18.7914 136.497 18.6923C136.263 18.5931 136.027 18.5986 135.788 18.7088C135.559 18.797 135.413 18.9843 135.348 19.2708C135.282 19.5573 135.299 19.9099 135.396 20.3286L135.902 23.6179C135.978 23.9485 136.086 24.1689 136.228 24.279C136.369 24.3892 136.521 24.4443 136.684 24.4443C136.869 24.4443 137.094 24.3837 137.36 24.2625L138.159 23.8989C138.425 23.7777 138.64 23.7171 138.803 23.7171C138.966 23.7171 139.18 23.7777 139.447 23.8989C139.713 24.0201 140.061 24.1413 140.49 24.2625C140.919 24.3837 141.46 24.4443 142.111 24.4443ZM157.563 23.8245C156.846 24.2047 155.998 24.3947 155.02 24.3947C153.368 24.3947 152.127 23.9925 151.296 23.1881C150.465 22.3837 150.049 21.1165 150.049 19.3865V11.9154C150.049 11.684 150.027 11.5077 149.984 11.3865C149.94 11.2653 149.832 11.1661 149.658 11.089L148.892 10.841C148.707 10.7529 148.588 10.6454 148.533 10.5187C148.479 10.392 148.452 10.235 148.452 10.0476C148.452 9.81624 148.533 9.62615 148.696 9.47739C148.859 9.32863 149.06 9.25425 149.299 9.25425H150.098C150.196 9.25425 150.299 9.21569 150.408 9.13855C150.516 9.06142 150.663 8.90715 150.848 8.67574L153.863 6.14682C154.08 5.88235 154.297 5.68125 154.515 5.54351C154.732 5.40577 154.949 5.3369 155.167 5.3369C155.417 5.3369 155.612 5.41403 155.753 5.5683L155.798 5.62299C155.91 5.77753 155.965 6.00173 155.965 6.29558L155.965 9.25425H159.372C159.611 9.25425 159.796 9.30659 159.926 9.41128C160.056 9.51596 160.122 9.6785 160.122 9.89888C160.122 10.2074 159.986 10.4719 159.714 10.6923L159.653 10.7378C159.38 10.9278 158.965 11.0228 158.41 11.0228H155.965L155.965 18.56C155.965 19.3865 156.104 19.9981 156.381 20.3947C156.658 20.7914 157.063 20.9898 157.595 20.9898C157.823 20.9898 158.035 20.9402 158.231 20.841C158.426 20.7419 158.603 20.6124 158.761 20.4526C158.918 20.2928 159.068 20.1138 159.209 19.9154C159.35 19.7171 159.486 19.5187 159.616 19.3204C159.725 19.2763 159.82 19.2956 159.902 19.3782C159.983 19.4609 160.018 19.6289 160.007 19.8824C159.931 20.7749 159.684 21.56 159.266 22.2377C158.848 22.9154 158.28 23.4443 157.563 23.8245ZM168.238 24.3947C169.618 24.3947 170.835 24.1248 171.889 23.5848C172.943 23.0449 173.764 22.3259 174.35 21.4278C174.937 20.5297 175.23 19.5408 175.23 18.4609C175.23 18.2515 175.192 18.1027 175.116 18.0146C175.04 17.9264 174.948 17.8824 174.839 17.8824C174.763 17.8824 174.674 17.9071 174.57 17.9567C174.467 18.0063 174.35 18.1027 174.22 18.246C173.992 18.9512 173.543 19.5022 172.875 19.8989C172.207 20.2956 171.438 20.4939 170.569 20.4939C169.211 20.4939 168.124 20.0284 167.309 19.0972C166.832 18.5514 166.494 17.8247 166.296 16.9173L166.28 16.841H173.731C174.202 16.841 174.572 16.7166 174.84 16.4678L174.904 16.403C175.176 16.111 175.312 15.7116 175.312 15.2047C175.312 14.0366 175.038 12.976 174.489 12.0228C173.94 11.0697 173.155 10.3149 172.134 9.75839C171.112 9.20191 169.895 8.92367 168.483 8.92367C166.82 8.92367 165.397 9.25425 164.213 9.91541C163.028 10.5766 162.124 11.4994 161.499 12.684C160.874 13.8686 160.562 15.2487 160.562 16.8245C160.562 18.3231 160.885 19.6427 161.531 20.7832C162.178 21.9237 163.077 22.8107 164.229 23.4443C165.381 24.0779 166.717 24.3947 168.238 24.3947ZM166.087 14.7253C166.087 14.9989 166.095 15.2625 166.11 15.516L166.112 15.5518H168.646C169.059 15.5518 169.265 15.3204 169.265 14.8576C169.265 13.3479 169.099 12.268 168.768 11.6179C168.437 10.9678 168.081 10.6427 167.7 10.6427C167.407 10.6427 167.141 10.7667 166.902 11.0146C166.663 11.2625 166.467 11.684 166.315 12.279C166.163 12.8741 166.087 13.6895 166.087 14.7253ZM185.189 24.0642C185.45 24.0642 185.648 23.9953 185.784 23.8576C185.92 23.7198 185.988 23.5408 185.988 23.3204C185.988 23.133 185.939 22.9705 185.841 22.8328C185.743 22.695 185.58 22.6096 185.352 22.5766L184.129 22.3286C183.923 22.2846 183.771 22.1716 183.673 21.9898C183.575 21.808 183.526 21.5628 183.526 21.2543V15.4361C183.526 14.7859 183.564 14.2515 183.641 13.8328C183.717 13.414 183.828 13.1027 183.975 12.8989C184.121 12.695 184.292 12.5931 184.488 12.5931C184.684 12.5931 184.825 12.6647 184.912 12.808C184.999 12.9512 185.048 13.1496 185.059 13.403L185.075 14.0642C185.097 14.8135 185.3 15.392 185.686 15.7997C186.072 16.2074 186.667 16.4113 187.471 16.4113C188.297 16.4113 188.97 16.1138 189.492 15.5187C190.013 14.9237 190.274 13.9925 190.274 12.7253C190.274 11.4471 190.024 10.4939 189.524 9.86582C189.025 9.23772 188.307 8.92367 187.373 8.92367C186.601 8.92367 185.89 9.16334 185.238 9.64268C184.586 10.122 184.062 10.8548 183.665 11.841C183.599 12.0054 183.538 12.177 183.483 12.356L183.455 12.4512L183.331 9.88235C183.302 9.57871 183.249 9.35778 183.173 9.21956L183.143 9.17161C183.051 9.03938 182.913 8.97326 182.728 8.97326C182.597 8.97326 182.44 8.9953 182.255 9.03938C182.07 9.08345 181.842 9.16059 181.571 9.27078L176.942 10.6096C176.681 10.7088 176.496 10.8273 176.388 10.965C176.279 11.1027 176.225 11.2598 176.225 11.4361C176.225 11.5903 176.26 11.7171 176.331 11.8162C176.401 11.9154 176.513 12.0091 176.665 12.0972L177.088 12.1468C177.23 12.2129 177.33 12.3038 177.39 12.4195C177.45 12.5352 177.48 12.7253 177.48 12.9898V21.3865C177.48 21.7171 177.452 21.954 177.398 22.0972C177.344 22.2405 177.246 22.3452 177.105 22.4113L176.73 22.56C176.589 22.6592 176.477 22.7666 176.396 22.8824C176.314 22.9981 176.274 23.1441 176.274 23.3204C176.274 23.5518 176.341 23.7336 176.477 23.8658C176.613 23.9981 176.801 24.0642 177.04 24.0642H185.189ZM202.351 23.1055C201.319 23.9981 199.836 24.4443 197.902 24.4443C197.25 24.4443 196.709 24.3837 196.28 24.2625C195.851 24.1413 195.503 24.0201 195.237 23.8989C194.971 23.7777 194.756 23.7171 194.593 23.7171C194.43 23.7171 194.216 23.7777 193.949 23.8989L193.151 24.2625C192.885 24.3837 192.659 24.4443 192.474 24.4443C192.311 24.4443 192.159 24.3892 192.018 24.279C191.877 24.1689 191.768 23.9485 191.692 23.6179L191.187 20.3286C191.089 19.9099 191.073 19.5573 191.138 19.2708C191.203 18.9843 191.35 18.797 191.578 18.7088C191.817 18.5986 192.053 18.5931 192.287 18.6923C192.521 18.7914 192.73 18.9678 192.914 19.2212C193.534 20.1799 194.093 20.9347 194.593 21.4857C195.093 22.0366 195.579 22.4251 196.052 22.6509C196.525 22.8768 197.022 22.9898 197.543 22.9898C198.097 22.9898 198.51 22.8576 198.782 22.5931C199.054 22.3286 199.189 21.9925 199.189 21.5848C199.189 21.2763 199.111 20.9953 198.953 20.7419C198.796 20.4884 198.508 20.2543 198.089 20.0394C197.671 19.8245 197.071 19.6124 196.288 19.403C195.082 19.0945 194.083 18.6923 193.289 18.1964C192.496 17.7005 191.907 17.1055 191.521 16.4113C191.135 15.7171 190.942 14.9071 190.942 13.9815C190.942 12.9347 191.2 12.0339 191.717 11.279C192.233 10.5242 192.939 9.94296 193.835 9.53524C194.732 9.12753 195.74 8.92367 196.859 8.92367C197.532 8.92367 198.081 8.98979 198.505 9.12202C198.929 9.25425 199.257 9.38648 199.491 9.51872C199.725 9.65095 199.901 9.71706 200.021 9.71706C200.151 9.71706 200.344 9.6537 200.599 9.52698C200.855 9.40026 201.113 9.27629 201.373 9.15508C201.634 9.03387 201.852 8.97326 202.025 8.97326C202.221 8.97326 202.379 9.03938 202.498 9.17161C202.618 9.30384 202.699 9.52974 202.743 9.84929L203.166 12.8906C203.242 13.3314 203.253 13.6702 203.199 13.9071C203.145 14.1441 203.003 14.2956 202.775 14.3617C202.59 14.4058 202.395 14.37 202.188 14.2543C201.982 14.1386 201.776 13.954 201.569 13.7005C200.776 12.4994 200.051 11.6509 199.393 11.1551C198.736 10.6592 198.038 10.4113 197.299 10.4113C196.766 10.4113 196.364 10.527 196.093 10.7584C195.821 10.9898 195.685 11.2928 195.685 11.6675C195.685 11.9209 195.745 12.1578 195.865 12.3782C195.984 12.5986 196.204 12.8052 196.525 12.9981C196.845 13.1909 197.299 13.381 197.886 13.5683C199.461 14.0532 200.684 14.5683 201.553 15.1138C202.422 15.6592 203.031 16.2846 203.378 16.9898C203.726 17.695 203.9 18.516 203.9 19.4526C203.9 20.9953 203.384 22.2129 202.351 23.1055Z" fill="#333D4B"/>
</svg>
